<?xml version="1.0" encoding="utf-8"?>
<svg version="1.1" id="Layer_1" xmlns="http://www.w3.org/2000/svg" xmlns:xlink="http://www.w3.org/1999/xlink" x="0px" y="0px"
	 viewBox="0 0 512 512" style="enable-background:new 0 0 512 512;" xml:space="preserve">
<style type="text/css">
	.st0{fill:#FFFFFF;}
</style>
<g>
	<path class="st0" d="M480,32.2c-21.7,21.2-42.9,43-64.5,64.3c-1,1.2-2.3-0.2-3.1-0.8c-24.5-24-54.6-42.3-87.2-52.8
		c-37.6-12.2-78.4-14.1-117-5.6C139.4,51.9,79.3,101.3,51.7,165.8c0,0,0.1,0,0.1,0c-2.3,4.5-3.6,9.7-3.6,15.1
		c0,18.5,15,33.5,33.5,33.5c15.8,0,29.1-11,32.6-25.8c19.8-42,58.8-74.4,104-85.5c52.2-13.2,111.4,1.3,149.4,40
		c-22,21.8-44.4,43.3-66.3,65.3c59.5-0.3,119.1-0.1,178.6-0.1C480.3,149.6,479.9,90.9,480,32.2z"/>
	<path class="st0" d="M431.6,297.5c-14.6,0-27,9.4-31.6,22.5c0,0,0,0,0,0c-19.1,42.6-57.6,76.2-102.8,88.2
		c-52.8,14.3-113.4,0.3-152.2-39.1c21.9-21.8,44.4-43,66.2-64.9c-59.7,0-119.4,0-179.1,0c-0.1,58.6-0.2,117.2,0,175.8
		c21.9-21.9,43.8-43.9,65.8-65.7c14.1,13.8,29.8,26.1,46.9,35.9c54.7,32,123.4,38.6,183.3,17.9c57.5-19.3,106.1-63.2,131.2-118.3
		c3.6-5.4,5.8-11.8,5.8-18.8C465.1,312.5,450.1,297.5,431.6,297.5z"/>
</g>
</svg>
